PathFileType	4	(X/Y/Z)	0_coords_data.trc
DataRate	CameraRate	NumFrames	NumMarkers	Units	OrigDataRate	OrigDataStartFrame	OrigNumFrames
30.0	30.0	4	21	m	30.0	1	72
Frame#	Time	THUMB_TIP	THUMB_IP	THUMB_MCP	THUMB_CMC	INDEX_TIP	INDEX_DIP	INDEX_PIP	INDEX_MCP	MIDDLE_TIP	MIDDLE_DIP	MIDDLE_PIP	MIDDLE_MCP	RING_TIP	RING_DIP	RING_PIP	RING_MCP	PINKY_TIP	PINKY_DIP	PINKY_PIP	PINKY_MCP	WRIST
X1	Y1	Z1	X2	Y2	Z2	X3	Y3	Z3	X4	Y4	Z4	X5	Y5	Z5	X6	Y6	Z6	X7	Y7	Z7	X8	Y8	Z8	X9	Y9	Z9	X10	Y10	Z10	X11	Y11	Z11	X12	Y12	Z12	X13	Y13	Z13	X14	Y14	Z14	X15	Y15	Z15	X16	Y16	Z16	X17	Y17	Z17	X18	Y18	Z18	X19	Y19	Z19	X20	Y20	Z20	X21	Y21	Z21
0	-2.749317978547796e-18	0.5400666767210698	-0.02556564092906899	-0.13640901370162323	0.5266217427895334	-0.01806388261632974	-0.11935154103437634	0.4987376888580314	-0.007702704358740209	-0.11018936217454506	0.46773504058291293	-0.015146155955901297	-0.07899127203668549	0.5582108846546732	0.0425719883098451	-0.16478910451830364	0.5466207241108856	0.038955204927531684	-0.1513508361575866	0.5302338330316306	0.03451763352310433	-0.13280932613851731	0.506071421790856	0.033083932508096936	-0.09776994146310874	0.5126301085426017	-0.008254846922804204	-0.10893510194559392	0.5257577138097561	-0.0039788616861530235	-0.12065610575097341	0.5408871060245426	0.02085905482053152	-0.11876165469113331	0.52082681378791	0.02674475312587432	-0.07927632637998228	0.5268667693115516	-0.015135528661232911	-0.09582568203569491	0.5383428908832745	-0.011879215932601883	-0.10934215572835587	0.5535886248258951	0.006402893771451312	-0.10202696329617827	0.5325105044288407	0.01198447938200864	-0.06797876838661937	0.6033356586189274	0.011555561708089246	-0.07841690686437147	0.5876119444584998	0.005570826660860395	-0.07526289998174701	0.5673169055482572	0.0019126923611341162	-0.0713206331114169	0.5336314386692578	-0.009707096025984074	-0.06573911987731723	0.4622830810018609	-0.023011742144276925	-0.051989820119430985
1	0.03333333333333339	0.540215825286007	-0.02443112746692333	-0.1364980709626346	0.5270348823999987	-0.016809066012610785	-0.11928856998722936	0.49893511866583207	-0.006823057676091593	-0.1103721292406657	0.4685515325137627	-0.014650811932679697	-0.07866323528584218	0.5583648670054053	0.043254517753122834	-0.16408192929259596	0.5466174687194258	0.039520486294054025	-0.15081333318851436	0.5302955739855473	0.03506375441186693	-0.13221916404261047	0.5061555878018241	0.03350321775275722	-0.09716974341422868	0.5129217644193982	-0.007413153087275193	-0.10826291618284511	0.5259378988089405	-0.003675579119752026	-0.12028833868646921	0.5408863812864857	0.021286701430078603	-0.11860400755213923	0.5206271340269055	0.027021358611426072	-0.07919811296151213	0.5257131135260987	-0.014201209828629602	-0.09664904647741002	0.5380755836182406	-0.010860978619206652	-0.10933810431038155	0.5539569936415252	0.0069231589879034106	-0.10214885927048373	0.5323207548922979	0.012169824184195543	-0.06839879984676633	0.6033578673201837	0.012375330745199142	-0.0781144313199143	0.5875699415870509	0.006456194560239381	-0.07516396900546563	0.5673419080098676	0.002156599095138101	-0.07153737894911444	0.5334893522456164	-0.008711965667853927	-0.06547419338202837	0.4622830810018609	-0.023011742144276925	-0.051989820119430985
2	0.06666666666666676	0.5403294877085865	-0.02359099006702936	-0.13651045755381358	0.5273505179499587	-0.015863766071607444	-0.11919467419500474	0.49908682794747183	-0.006171900364289495	-0.11047391926468819	0.46917511160092396	-0.014278487424880026	-0.07838868167116664	0.5585391849392898	0.04376328211784497	-0.16349236037568787	0.5466637223200004	0.03993732084404866	-0.1503647022483115	0.5303809935317929	0.03547331224868855	-0.13173796867878212	0.5062436435311557	0.03381443314390009	-0.09669124915951127	0.5131785613098645	-0.006734672186196722	-0.10772543113946387	0.5260936243621851	-0.003447004544931964	-0.11998888855714035	0.5409107378380354	0.02160236149970396	-0.11844229261584821	0.5204881326893708	0.02723293833298468	-0.07910577364852905	0.5248947221859871	-0.013507585854089399	-0.0972918157016261	0.5378879471828801	-0.010069773018062111	-0.10930670426059996	0.5542474325940633	0.007309709758301142	-0.10220031315769967	0.5321835255791558	0.012305501893570603	-0.06868991324694501	0.6033600879776062	0.012904239114610028	-0.07785064289991217	0.5875215487654443	0.007042954359429032	-0.07506029943655657	0.5673552339735406	0.0022774310577248214	-0.07168072041325213	0.5333806646823354	-0.00798665034539281	-0.06525726920480673	0.4622830810018609	-0.023011742144276925	-0.051989820119430985
3	0.10000000000000014	0.5404237504702796	-0.022998709521053984	-0.1364773150373993	0.527588144854207	-0.015181462307571003	-0.11909520140090668	0.4992026658821421	-0.005713626491756996	-0.11052521490784584	0.4696304570097366	-0.014010558404371931	-0.07817501578567265	0.5587289662697027	0.044126257286442594	-0.1630074640994853	0.546752919829573	0.04023197628629305	-0.14999174717125846	0.5304867865611103	0.035770014813612194	-0.13135002940413937	0.5063350996036275	0.03403649485810767	-0.09631680203822807	0.5133970868344019	-0.006204849478007035	-0.10730521479993682	0.5262262061889443	-0.0032823011225627807	-0.11974998911275558	0.5409552329363513	0.02182344220727972	-0.11827792493948025	0.5204009882290286	0.027390050655218712	-0.0790009111031556	0.5243451884593895	-0.013039079055889746	-0.09776646936736094	0.5377715907251156	-0.009490843128966642	-0.10926176162140122	0.5544704031992012	0.007579962786245731	-0.10219654921408627	0.5320930688162671	0.012399329369653156	-0.0688686413042115	0.6033657621754639	0.013207641400517112	-0.07761907133947638	0.5874881885669383	0.00739611981850774	-0.07494907635676723	0.5673685775626733	0.002316460369575446	-0.07175371535682801	0.5333053570132257	-0.007484527381466322	-0.06508130230729181	0.4622830810018609	-0.023011742144276925	-0.051989820119430985
